<svg xmlns="http://www.w3.org/2000/svg" viewBox="0 0 64 64" width="64" height="64" role="img" aria-label="chroma.fyi"><title>chroma.fyi</title><g><path d="M 32 32 L 32.000 0.000 A 32 32 0 0 1 36.272 0.286 Z" fill="oklch(0.72 0.175 3.75)"/><path d="M 32 32 L 36.177 0.274 A 32 32 0 0 1 40.375 1.115 Z" fill="oklch(0.72 0.175 11.25)"/><path d="M 32 32 L 40.282 1.090 A 32 32 0 0 1 44.335 2.473 Z" fill="oklch(0.72 0.175 18.75)"/><path d="M 32 32 L 44.246 2.436 A 32 32 0 0 1 48.083 4.335 Z" fill="oklch(0.72 0.175 26.25)"/><path d="M 32 32 L 48.000 4.287 A 32 32 0 0 1 51.556 6.671 Z" fill="oklch(0.72 0.175 33.75)"/><path d="M 32 32 L 51.480 6.613 A 32 32 0 0 1 54.695 9.441 Z" fill="oklch(0.72 0.175 41.25)"/><path d="M 32 32 L 54.627 9.373 A 32 32 0 0 1 57.446 12.596 Z" fill="oklch(0.72 0.175 48.75)"/><path d="M 32 32 L 57.387 12.520 A 32 32 0 0 1 59.761 16.083 Z" fill="oklch(0.72 0.175 56.25)"/><path d="M 32 32 L 59.713 16.000 A 32 32 0 0 1 61.601 19.843 Z" fill="oklch(0.72 0.175 63.75)"/><path d="M 32 32 L 61.564 19.754 A 32 32 0 0 1 62.934 23.811 Z" fill="oklch(0.72 0.175 71.25)"/><path d="M 32 32 L 62.910 23.718 A 32 32 0 0 1 63.739 27.918 Z" fill="oklch(0.72 0.175 78.75)"/><path d="M 32 32 L 63.726 27.823 A 32 32 0 0 1 64.000 32.096 Z" fill="oklch(0.72 0.175 86.25)"/><path d="M 32 32 L 64.000 32.000 A 32 32 0 0 1 63.714 36.272 Z" fill="oklch(0.72 0.175 93.75)"/><path d="M 32 32 L 63.726 36.177 A 32 32 0 0 1 62.885 40.375 Z" fill="oklch(0.72 0.175 101.25)"/><path d="M 32 32 L 62.910 40.282 A 32 32 0 0 1 61.527 44.335 Z" fill="oklch(0.72 0.175 108.75)"/><path d="M 32 32 L 61.564 44.246 A 32 32 0 0 1 59.665 48.083 Z" fill="oklch(0.72 0.175 116.25)"/><path d="M 32 32 L 59.713 48.000 A 32 32 0 0 1 57.329 51.556 Z" fill="oklch(0.72 0.175 123.75)"/><path d="M 32 32 L 57.387 51.480 A 32 32 0 0 1 54.559 54.695 Z" fill="oklch(0.72 0.175 131.25)"/><path d="M 32 32 L 54.627 54.627 A 32 32 0 0 1 51.404 57.446 Z" fill="oklch(0.72 0.175 138.75)"/><path d="M 32 32 L 51.480 57.387 A 32 32 0 0 1 47.917 59.761 Z" fill="oklch(0.72 0.175 146.25)"/><path d="M 32 32 L 48.000 59.713 A 32 32 0 0 1 44.157 61.601 Z" fill="oklch(0.72 0.175 153.75)"/><path d="M 32 32 L 44.246 61.564 A 32 32 0 0 1 40.189 62.934 Z" fill="oklch(0.72 0.175 161.25)"/><path d="M 32 32 L 40.282 62.910 A 32 32 0 0 1 36.082 63.739 Z" fill="oklch(0.72 0.175 168.75)"/><path d="M 32 32 L 36.177 63.726 A 32 32 0 0 1 31.904 64.000 Z" fill="oklch(0.72 0.175 176.25)"/><path d="M 32 32 L 32.000 64.000 A 32 32 0 0 1 27.728 63.714 Z" fill="oklch(0.72 0.175 183.75)"/><path d="M 32 32 L 27.823 63.726 A 32 32 0 0 1 23.625 62.885 Z" fill="oklch(0.72 0.175 191.25)"/><path d="M 32 32 L 23.718 62.910 A 32 32 0 0 1 19.665 61.527 Z" fill="oklch(0.72 0.175 198.75)"/><path d="M 32 32 L 19.754 61.564 A 32 32 0 0 1 15.917 59.665 Z" fill="oklch(0.72 0.175 206.25)"/><path d="M 32 32 L 16.000 59.713 A 32 32 0 0 1 12.444 57.329 Z" fill="oklch(0.72 0.175 213.75)"/><path d="M 32 32 L 12.520 57.387 A 32 32 0 0 1 9.305 54.559 Z" fill="oklch(0.72 0.175 221.25)"/><path d="M 32 32 L 9.373 54.627 A 32 32 0 0 1 6.554 51.404 Z" fill="oklch(0.72 0.175 228.75)"/><path d="M 32 32 L 6.613 51.480 A 32 32 0 0 1 4.239 47.917 Z" fill="oklch(0.72 0.175 236.25)"/><path d="M 32 32 L 4.287 48.000 A 32 32 0 0 1 2.399 44.157 Z" fill="oklch(0.72 0.175 243.75)"/><path d="M 32 32 L 2.436 44.246 A 32 32 0 0 1 1.066 40.189 Z" fill="oklch(0.72 0.175 251.25)"/><path d="M 32 32 L 1.090 40.282 A 32 32 0 0 1 0.261 36.082 Z" fill="oklch(0.72 0.175 258.75)"/><path d="M 32 32 L 0.274 36.177 A 32 32 0 0 1 0.000 31.904 Z" fill="oklch(0.72 0.175 266.25)"/><path d="M 32 32 L 0.000 32.000 A 32 32 0 0 1 0.286 27.728 Z" fill="oklch(0.72 0.175 273.75)"/><path d="M 32 32 L 0.274 27.823 A 32 32 0 0 1 1.115 23.625 Z" fill="oklch(0.72 0.175 281.25)"/><path d="M 32 32 L 1.090 23.718 A 32 32 0 0 1 2.473 19.665 Z" fill="oklch(0.72 0.175 288.75)"/><path d="M 32 32 L 2.436 19.754 A 32 32 0 0 1 4.335 15.917 Z" fill="oklch(0.72 0.175 296.25)"/><path d="M 32 32 L 4.287 16.000 A 32 32 0 0 1 6.671 12.444 Z" fill="oklch(0.72 0.175 303.75)"/><path d="M 32 32 L 6.613 12.520 A 32 32 0 0 1 9.441 9.305 Z" fill="oklch(0.72 0.175 311.25)"/><path d="M 32 32 L 9.373 9.373 A 32 32 0 0 1 12.596 6.554 Z" fill="oklch(0.72 0.175 318.75)"/><path d="M 32 32 L 12.520 6.613 A 32 32 0 0 1 16.083 4.239 Z" fill="oklch(0.72 0.175 326.25)"/><path d="M 32 32 L 16.000 4.287 A 32 32 0 0 1 19.843 2.399 Z" fill="oklch(0.72 0.175 333.75)"/><path d="M 32 32 L 19.754 2.436 A 32 32 0 0 1 23.811 1.066 Z" fill="oklch(0.72 0.175 341.25)"/><path d="M 32 32 L 23.718 1.090 A 32 32 0 0 1 27.918 0.261 Z" fill="oklch(0.72 0.175 348.75)"/><path d="M 32 32 L 27.823 0.274 A 32 32 0 0 1 32.096 0.000 Z" fill="oklch(0.72 0.175 356.25)"/></g><circle cx="32" cy="32" r="10.5" fill="oklch(0.145 0.004 285)"/><circle cx="32" cy="32" r="32" fill="none" stroke="oklch(0 0 0 / 0.25)" stroke-width="0.6"/></svg>